<svg width="32" height="32" viewBox="0 0 32 32" fill="none" xmlns="http://www.w3.org/2000/svg">
<g clip-path="url(#clip0_113_349)">
<path d="M9.58584 31.9169L6.75399 29.0872L13.1398 22.7063L9.2885 18.858L2.83186 25.3662L0 22.5365L6.45664 16.0283L0 9.46346L2.83186 6.6338L9.2885 13.142L13.1398 9.29368L6.75399 2.91279L9.58584 0.0831203L15.9717 6.46402L22.4973 -0.000104193L25.3292 2.82956L18.8602 9.29368L22.6549 13.142L29.1681 6.6338L32 9.46346L25.4867 16.0283L32 22.5365L29.1681 25.3662L22.6549 18.858L18.8602 22.7063L25.3292 29.1703L22.4973 32L15.9717 25.536L9.58584 31.9169ZM15.9717 19.8201L19.7664 16.0283L15.9717 12.1799L12.177 16.0283L15.9717 19.8201Z" fill="black"/>
</g>
<defs>
<clipPath id="clip0_113_349">
<rect width="32" height="32" fill="white"/>
</clipPath>
</defs>
</svg>
